#Comment line ignore any data following # character 
#Hierarchical Translation and Rotation (.htr) file 
[Header]	
#Header keywords are followed by a single value 
FileType HTR		#Single word string
DataType HTRS		#Translation followed by rotation and scale data
FileVersion 1		#integer
NumSegments 64		#integer
NumFrames 3		#integer
DataFrameRate 30		#integer, data frame rate in this file
EulerRotationOrder ZYX
CalibrationUnits mm
RotationUnits Degrees
GlobalAxisofGravity Y
BoneLengthAxis Y
ScaleFactor 1.00
[SegmentNames&Hierarchy]
#CHILD	PARENT
Pinger_Root GLOBAL
Pelvis Pinger_Root
L_Hip Pelvis
R_Hip Pelvis
Rear_Leg01 Pelvis
Spine1 Pelvis
L_Leg01 L_Hip
L_Leg02 L_Leg01
L_Leg03 L_Leg02
L_Foot L_Leg03
L_Toe1_01 L_Foot
L_Toe2_01 L_Foot
L_Toe3_01 L_Foot
planeAlignerLeft L_Foot
L_Toe1_02 L_Toe1_01
L_Toe1_03 L_Toe1_02
L_Toe2_02 L_Toe2_01
L_Toe2_03 L_Toe2_02
L_Toe3_02 L_Toe3_01
L_Toe3_03 L_Toe3_02
planeLockWeightLeft planeAlignerLeft
R_Leg01 R_Hip
R_Leg02 R_Leg01
R_Leg03 R_Leg02
R_Foot R_Leg03
planeAlignerRight R_Foot
R_Toe1_01 R_Foot
R_Toe2_01 R_Foot
R_Toe3_01 R_Foot
planeLockWeightRight planeAlignerRight
R_Toe1_02 R_Toe1_01
R_Toe1_03 R_Toe1_02
R_Toe2_02 R_Toe2_01
R_Toe2_03 R_Toe2_02
R_Toe3_02 R_Toe3_01
R_Toe3_03 R_Toe3_02
Rear_Leg02 Rear_Leg01
Rear_Leg03 Rear_Leg02
Rear_Leg04 Rear_Leg03
Rear_Foot Rear_Leg04
planeAlignerCenter Rear_Foot
Rear_Toe1_01 Rear_Foot
Rear_Toe2_01 Rear_Foot
Rear_Toe3_01 Rear_Foot
planeLockWeightCenter planeAlignerCenter
Rear_Toe1_02 Rear_Toe1_01
Rear_Toe1_03 Rear_Toe1_02
Rear_Toe2_02 Rear_Toe2_01
Rear_Toe2_03 Rear_Toe2_02
Rear_Toe3_02 Rear_Toe3_01
Rear_Toe3_03 Rear_Toe3_02
Back_Bone Spine1
Head Spine1
Motor_Bone Back_Bone
Ping_Mechanism Back_Bone
BN_LookIK Head
bottomMouth Head
L_Mouth01 Head
L_mouthFront Head
mouthGun Head
R_Mouth01 Head
R_mouthFront Head
TopMouth Head
weapon_bone Head
[BasePosition]
#SegmentName Tx, Ty, Tz, Rx, Ry, Rz, BoneLength
Pinger_Root 0.000000 0.000000 0.000000 -90.000000 0.000000 0.000000 10.000000 
Pelvis 0.000000 0.000000 0.000000 0.000000 0.000000 0.000000 10.000000 
L_Hip 0.000000 0.000000 0.000000 0.000000 0.000000 0.000000 10.000000 
R_Hip 0.000000 0.000000 0.000000 0.000000 0.000000 0.000000 10.000000 
Rear_Leg01 0.000000 0.000000 0.000000 0.000000 0.000000 0.000000 10.000000 
Spine1 0.000000 0.000000 0.000000 0.000000 0.000000 0.000000 10.000000 
L_Leg01 0.000000 0.000000 0.000000 0.000000 0.000000 0.000000 10.000000 
L_Leg02 0.000000 0.000000 0.000000 0.000000 0.000000 0.000000 10.000000 
L_Leg03 0.000000 0.000000 0.000000 0.000000 0.000000 0.000000 10.000000 
L_Foot 0.000000 0.000000 0.000000 0.000000 0.000000 0.000000 10.000000 
L_Toe1_01 0.000000 0.000000 0.000000 0.000000 0.000000 0.000000 10.000000 
L_Toe2_01 0.000000 0.000000 0.000000 0.000000 0.000000 0.000000 10.000000 
L_Toe3_01 0.000000 0.000000 0.000000 0.000000 0.000000 0.000000 10.000000 
planeAlignerLeft 0.000000 0.000000 0.000000 0.000000 0.000000 0.000000 10.000000 
L_Toe1_02 0.000000 0.000000 0.000000 0.000000 0.000000 0.000000 10.000000 
L_Toe1_03 0.000000 0.000000 0.000000 0.000000 0.000000 0.000000 10.000000 
L_Toe2_02 0.000000 0.000000 0.000000 0.000000 0.000000 0.000000 10.000000 
L_Toe2_03 0.000000 0.000000 0.000000 0.000000 0.000000 0.000000 10.000000 
L_Toe3_02 0.000000 0.000000 0.000000 0.000000 0.000000 0.000000 10.000000 
L_Toe3_03 0.000000 0.000000 0.000000 0.000000 0.000000 0.000000 10.000000 
planeLockWeightLeft 0.000000 0.000000 0.000000 0.000000 0.000000 0.000000 10.000000 
R_Leg01 0.000000 0.000000 0.000000 0.000000 0.000000 0.000000 10.000000 
R_Leg02 0.000000 0.000000 0.000000 0.000000 0.000000 0.000000 10.000000 
R_Leg03 0.000000 0.000000 0.000000 0.000000 0.000000 0.000000 10.000000 
R_Foot 0.000000 0.000000 0.000000 0.000000 0.000000 0.000000 10.000000 
planeAlignerRight 0.000000 0.000000 0.000000 0.000000 0.000000 0.000000 10.000000 
R_Toe1_01 0.000000 0.000000 0.000000 0.000000 0.000000 0.000000 10.000000 
R_Toe2_01 0.000000 0.000000 0.000000 0.000000 0.000000 0.000000 10.000000 
R_Toe3_01 0.000000 0.000000 0.000000 0.000000 0.000000 0.000000 10.000000 
planeLockWeightRight 0.000000 0.000000 0.000000 0.000000 0.000000 0.000000 10.000000 
R_Toe1_02 0.000000 0.000000 0.000000 0.000000 0.000000 0.000000 10.000000 
R_Toe1_03 0.000000 0.000000 0.000000 0.000000 0.000000 0.000000 10.000000 
R_Toe2_02 0.000000 0.000000 0.000000 0.000000 0.000000 0.000000 10.000000 
R_Toe2_03 0.000000 0.000000 0.000000 0.000000 0.000000 0.000000 10.000000 
R_Toe3_02 0.000000 0.000000 0.000000 0.000000 0.000000 0.000000 10.000000 
R_Toe3_03 0.000000 0.000000 0.000000 0.000000 0.000000 0.000000 10.000000 
Rear_Leg02 0.000000 0.000000 0.000000 0.000000 0.000000 0.000000 10.000000 
Rear_Leg03 0.000000 0.000000 0.000000 0.000000 0.000000 0.000000 10.000000 
Rear_Leg04 0.000000 0.000000 0.000000 0.000000 0.000000 0.000000 10.000000 
Rear_Foot 0.000000 0.000000 0.000000 0.000000 0.000000 0.000000 10.000000 
planeAlignerCenter 0.000000 0.000000 0.000000 0.000000 0.000000 0.000000 10.000000 
Rear_Toe1_01 0.000000 0.000000 0.000000 0.000000 0.000000 0.000000 10.000000 
Rear_Toe2_01 0.000000 0.000000 0.000000 0.000000 0.000000 0.000000 10.000000 
Rear_Toe3_01 0.000000 0.000000 0.000000 0.000000 0.000000 0.000000 10.000000 
planeLockWeightCenter 0.000000 0.000000 0.000000 0.000000 0.000000 0.000000 10.000000 
Rear_Toe1_02 0.000000 0.000000 0.000000 0.000000 0.000000 0.000000 10.000000 
Rear_Toe1_03 0.000000 0.000000 0.000000 0.000000 0.000000 0.000000 10.000000 
Rear_Toe2_02 0.000000 0.000000 0.000000 0.000000 0.000000 0.000000 10.000000 
Rear_Toe2_03 0.000000 0.000000 0.000000 0.000000 0.000000 0.000000 10.000000 
Rear_Toe3_02 0.000000 0.000000 0.000000 0.000000 0.000000 0.000000 10.000000 
Rear_Toe3_03 0.000000 0.000000 0.000000 0.000000 0.000000 0.000000 10.000000 
Back_Bone 0.000000 0.000000 0.000000 0.000000 0.000000 0.000000 10.000000 
Head 0.000000 0.000000 0.000000 0.000000 0.000000 0.000000 10.000000 
Motor_Bone 0.000000 0.000000 0.000000 0.000000 0.000000 0.000000 10.000000 
Ping_Mechanism 0.000000 0.000000 0.000000 0.000000 0.000000 0.000000 10.000000 
BN_LookIK 0.000000 0.000000 0.000000 0.000000 0.000000 0.000000 10.000000 
bottomMouth 0.000000 0.000000 0.000000 0.000000 0.000000 0.000000 10.000000 
L_Mouth01 0.000000 0.000000 0.000000 0.000000 0.000000 0.000000 10.000000 
L_mouthFront 0.000000 0.000000 0.000000 0.000000 0.000000 0.000000 10.000000 
mouthGun 0.000000 0.000000 0.000000 0.000000 0.000000 0.000000 10.000000 
R_Mouth01 0.000000 0.000000 0.000000 0.000000 0.000000 0.000000 10.000000 
R_mouthFront 0.000000 0.000000 0.000000 0.000000 0.000000 0.000000 10.000000 
TopMouth 0.000000 0.000000 0.000000 0.000000 0.000000 0.000000 10.000000 
weapon_bone 0.000000 0.000000 0.000000 0.000000 0.000000 0.000000 10.000000 
#Beginning of Data. Separated by tabs
#Fr	Tx	Ty	Tz	Rx	Ry	Rz	SF
[Pinger_Root]
114 0.000000 0.000000 0.000000 -0.000075 -0.000000 -0.000020 0.000000
115 0.000000 0.000000 0.000000 -0.000075 -0.000000 -0.000020 0.000000
116 0.000000 0.000000 0.000000 -0.000075 -0.000000 -0.000020 0.000000
[Pelvis]
114 -896.364563 1147.114868 3601.933594 -31.822186 -86.362991 23.412718 3885.005371
115 -930.989929 1147.303955 3640.504639 -39.974743 -86.648888 31.860548 3928.908691
116 -965.615967 1147.492920 3679.076660 -50.587730 -86.855644 42.489574 3973.003906
[L_Hip]
114 5.766392 125.831482 872.656799 -163.095825 -63.767124 79.581810 881.701050
115 5.766392 125.831482 872.656799 -161.681244 -64.662819 77.587509 881.701050
116 5.766392 125.831482 872.656799 -160.144287 -65.536041 75.472748 881.701050
[R_Hip]
114 5.765438 125.836372 -872.654907 -28.067976 62.808590 51.936451 881.699829
115 5.765438 125.836372 -872.654907 -29.313707 63.515781 51.149593 881.699829
116 5.765438 125.836372 -872.654907 -30.832092 64.261749 50.146194 881.699829
[Rear_Leg01]
114 -192.298416 -925.602966 -0.001907 -169.005661 17.309975 -107.452660 945.367432
115 -192.298416 -925.602966 -0.001907 -169.319748 17.115278 -108.292725 945.367432
116 -192.298416 -925.602966 -0.001907 -169.710464 17.197483 -109.193153 945.367432
[Spine1]
114 290.604584 5.007505 0.000477 5.766961 -10.414627 17.963646 290.647736
115 290.604584 5.007505 0.000477 5.357105 -9.779408 18.008682 290.647736
116 290.604584 5.007505 0.000477 4.956547 -9.028809 18.021736 290.647736
[L_Leg01]
114 761.932007 -0.002384 -0.069261 49.323471 27.262951 -106.277321 761.932068
115 761.932007 -0.002384 -0.069261 51.588043 27.485155 -106.167992 761.932068
116 761.932007 -0.002384 -0.069261 53.347897 27.313295 -105.888000 761.932068
[L_Leg02]
114 1441.140503 -0.000954 -0.000715 15.725602 4.087580 -50.848644 1441.140503
115 1441.140503 -0.000954 -0.000715 15.164396 3.568482 -49.342220 1441.140503
116 1441.140503 -0.000954 -0.000715 14.862565 3.264174 -49.149185 1441.140503
[L_Leg03]
114 1686.963989 -0.000715 -0.000954 -0.100639 0.060436 138.280655 1686.963989
115 1686.963989 -0.000715 -0.000954 -0.101212 0.059469 137.183121 1686.963989
116 1686.963989 -0.000715 -0.000954 -0.095155 0.056079 136.470474 1686.963989
[L_Foot]
114 3041.570068 -30.715107 11.297464 19.462408 28.465168 52.107754 3041.746094
115 3041.570068 -30.715107 11.297464 20.271606 28.782131 51.990860 3041.746094
116 3041.570068 -30.715107 11.297464 21.109198 28.784286 52.342655 3041.746094
[L_Toe1_01]
114 -188.216690 -224.732346 -21.137953 94.536530 -11.874323 -178.539001 293.899567
115 -188.216690 -224.732346 -21.137953 94.536530 -11.874324 -178.539001 293.899567
116 -188.216690 -224.732346 -21.137953 94.536530 -11.874324 -178.539001 293.899567
[L_Toe2_01]
114 200.746536 -219.926590 148.838394 -89.347908 -33.860287 -48.485107 332.896027
115 200.746536 -219.926590 148.838394 -89.347542 -33.860233 -48.485943 332.896027
116 200.746536 -219.926590 148.838394 -89.347168 -33.860180 -48.486771 332.896027
[L_Toe3_01]
114 188.832520 -219.859131 -191.078659 -97.078224 10.785590 -57.879002 347.140900
115 188.832520 -219.859131 -191.078659 -97.078224 10.785587 -57.879002 347.140900
116 188.832520 -219.859131 -191.078659 -97.078224 10.785587 -57.879002 347.140900
[planeAlignerLeft]
114 0.812531 -811.448792 -0.314951 0.000000 -90.000000 -90.001900 811.449280
115 0.812531 -811.448792 -0.314951 0.000000 -90.000000 -90.001900 811.449280
116 0.812531 -811.448792 -0.314951 0.000000 -90.000000 -90.001900 811.449280
[L_Toe1_02]
114 413.761139 0.000477 0.000000 0.000203 -25.410625 -0.000182 413.761139
115 413.761139 0.000477 0.000000 0.000203 -25.410625 -0.000182 413.761139
116 413.761139 0.000477 0.000000 0.000203 -25.410625 -0.000182 413.761139
[L_Toe1_03]
114 464.317322 0.000358 -0.000089 0.004342 58.635971 0.004342 464.317322
115 464.317322 0.000358 -0.000089 0.004342 58.635971 0.004342 464.317322
116 464.317322 0.000358 -0.000089 0.004342 58.635971 0.004342 464.317322
[L_Toe2_02]
114 342.235809 -0.000477 0.000238 0.001191 -70.156387 0.001191 342.235809
115 342.235809 -0.000477 0.000238 0.001191 -70.156403 0.001191 342.235809
116 342.235809 -0.000477 0.000238 0.001191 -70.156403 0.001191 342.235809
[L_Toe2_03]
114 420.210846 -0.000715 0.000000 0.013353 79.915680 0.013353 420.210846
115 420.210846 -0.000715 0.000000 0.013353 79.915703 0.013353 420.210846
116 420.210846 -0.000715 0.000000 0.013353 79.915703 0.013353 420.210846
[L_Toe3_02]
114 329.270111 0.000954 0.000000 0.001176 -83.119118 0.001176 329.270111
115 329.270111 0.000954 0.000000 0.001176 -83.118584 0.001176 329.270111
116 329.270111 0.000954 0.000000 0.001176 -83.118034 0.001176 329.270111
[L_Toe3_03]
114 439.137451 -0.001907 0.000954 179.990875 65.540871 179.998047 439.137451
115 439.137451 -0.001907 0.000954 179.990875 65.540901 179.998047 439.137451
116 439.137451 -0.001907 0.000954 179.990875 65.540901 179.998047 439.137451
[planeLockWeightLeft]
114 -0.000954 0.000238 -0.000305 -0.011826 -0.004376 0.005620 0.001029
115 -0.000954 0.000238 -0.000305 -0.011826 -0.004376 0.005620 0.001029
116 -0.000954 0.000238 -0.000305 -0.011826 -0.004376 0.005620 0.001029
[R_Leg01]
114 761.455627 -0.001907 -0.000358 92.343285 22.502834 107.384277 761.455688
115 761.455627 -0.001907 -0.000358 91.655334 19.942545 104.691185 761.455688
116 761.455627 -0.001907 -0.000358 90.031326 12.338293 98.342529 761.455688
[R_Leg02]
114 1441.140625 0.000000 -0.000238 29.935961 3.537501 -56.747875 1441.140625
115 1441.140625 0.000000 -0.000238 26.545515 3.203746 -60.975769 1441.140625
116 1441.140625 0.000000 -0.000238 18.075563 3.152085 -76.228523 1441.140625
[R_Leg03]
114 1686.963989 0.000954 0.001431 0.073958 -0.038638 130.723206 1686.963989
115 1686.963989 0.000954 0.001431 0.073940 -0.038677 130.783447 1686.963989
116 1686.963989 0.000954 0.001431 0.086032 -0.045525 133.397217 1686.963989
[R_Foot]
114 3041.560059 -30.531288 -11.204481 21.549051 -21.728518 24.572119 3041.734131
115 3041.560059 -30.531288 -11.204481 21.748795 -23.515497 25.986469 3041.734131
116 3041.560059 -30.531288 -11.204481 21.374949 -28.097858 30.525150 3041.734131
[planeAlignerRight]
114 -0.635147 -812.270569 -0.364304 0.000000 -89.960434 -90.005180 812.270874
115 -0.635147 -812.270569 -0.364304 0.000000 -89.960434 -90.005180 812.270874
116 -0.635147 -812.270569 -0.364304 0.000000 -89.960434 -90.005180 812.270874
[R_Toe1_01]
114 -188.383347 -224.864899 21.052242 90.575348 8.462499 175.364456 294.101532
115 -188.383347 -224.864899 21.052242 90.575340 8.462498 175.364456 294.101532
116 -188.383347 -224.864899 21.052242 90.575348 8.462501 175.364456 294.101532
[R_Toe2_01]
114 200.637817 -220.002121 -148.787384 -82.264130 10.459094 -29.562935 332.857574
115 200.637817 -220.002121 -148.787384 -82.264175 10.459109 -29.562902 332.857574
116 200.637817 -220.002121 -148.787384 -82.264244 10.459125 -29.562880 332.857574
[R_Toe3_01]
114 188.606735 -220.092957 191.126343 -69.666122 -41.493343 -42.965023 347.192566
115 188.606735 -220.092957 191.126343 -69.666138 -41.493389 -42.965012 347.192566
116 188.606735 -220.092957 191.126343 -69.666115 -41.493416 -42.964981 347.192566
[planeLockWeightRight]
114 -0.000477 0.000000 0.000000 -0.011823 -0.004379 -0.000027 0.000477
115 -0.000477 0.000000 0.000000 -0.011823 -0.004379 -0.000027 0.000477
116 -0.000477 0.000000 0.000000 -0.011823 -0.004379 -0.000027 0.000477
[R_Toe1_02]
114 413.762085 0.000477 -0.000119 0.001409 -22.797419 0.001409 413.762085
115 413.762085 0.000477 -0.000119 0.001409 -22.796638 0.001409 413.762085
116 413.762085 0.000477 -0.000119 0.001409 -22.795858 0.001409 413.762085
[R_Toe1_03]
114 464.317810 0.000000 0.001088 0.012349 79.092720 0.012349 464.317810
115 464.317810 0.000000 0.001088 0.012349 79.092659 0.012349 464.317810
116 464.317810 0.000000 0.001088 0.012348 79.092659 0.012348 464.317810
[R_Toe2_02]
114 342.234741 -0.000954 0.000238 0.001192 -69.583298 0.001192 342.234741
115 342.234741 -0.000954 0.000238 0.001192 -69.583298 0.001192 342.234741
116 342.234741 -0.000954 0.000238 0.001192 -69.583298 0.001192 342.234741
[R_Toe2_03]
114 420.210846 0.000715 -0.000268 0.011862 78.643677 0.011862 420.210846
115 420.210846 0.000715 -0.000268 0.011862 78.643707 0.011862 420.210846
116 420.210846 0.000715 -0.000268 0.011862 78.643776 0.011862 420.210846
[R_Toe3_02]
114 329.270355 -0.000477 -0.000954 0.001179 -79.434776 0.001179 329.270355
115 329.270355 -0.000477 -0.000954 0.001179 -79.434776 0.001179 329.270355
116 329.270355 -0.000477 -0.000954 0.001179 -79.434776 0.001179 329.270355
[R_Toe3_03]
114 439.137939 0.000238 0.001431 -179.993027 82.443108 -179.989532 439.137939
115 439.137939 0.000238 0.001431 -179.993027 82.443092 -179.989532 439.137939
116 439.137939 0.000238 0.001431 -179.993027 82.442955 -179.989532 439.137939
[Rear_Leg02]
114 1162.777710 -0.029802 0.005960 -12.104515 17.988407 -85.609642 1162.777710
115 1162.777710 -0.029802 0.005960 -11.340333 18.092306 -83.762398 1162.777710
116 1162.777710 -0.029802 0.005960 -10.572611 18.172716 -81.912842 1162.777710
[Rear_Leg03]
114 607.192505 -0.013351 -0.073195 0.010343 -0.005402 71.513733 607.192505
115 607.192505 -0.013351 -0.073195 0.010372 -0.005347 70.899170 607.192505
116 607.192505 -0.013351 -0.073195 0.010401 -0.005292 70.284538 607.192505
[Rear_Leg04]
114 995.874512 -0.020504 -0.011921 -0.041222 -0.016430 73.901138 995.874573
115 995.874512 -0.020504 -0.011921 -0.041044 -0.016864 72.688110 995.874573
116 995.874512 -0.020504 -0.011921 -0.041422 -0.016980 71.233276 995.874573
[Rear_Foot]
114 3096.176270 -0.067472 -0.041425 43.331795 62.483105 -139.626465 3096.176270
115 3096.176270 -0.067472 -0.041425 42.967415 62.653885 -140.271072 3096.176270
116 3096.176270 -0.067472 -0.041425 42.463093 62.757648 -141.037521 3096.176270
[planeAlignerCenter]
114 0.350077 0.966311 -838.790894 0.000009 0.000003 -179.999985 838.791565
115 0.350077 0.966311 -838.790894 0.000009 0.000003 -179.999985 838.791565
116 0.350077 0.966311 -838.790894 0.000009 0.000003 -179.999985 838.791565
[Rear_Toe1_01]
114 0.653352 83.966492 -371.173737 5.232555 29.534241 103.548195 380.553192
115 0.653352 83.966492 -371.173737 5.211891 29.378607 103.541359 380.553192
116 0.653352 83.966492 -371.173737 5.191277 29.222971 103.534615 380.553192
[Rear_Toe2_01]
114 178.200760 -294.826019 -362.060547 -8.688635 22.098427 -73.332153 499.765686
115 178.200760 -294.826019 -362.060547 -8.681209 21.972847 -73.331085 499.765686
116 178.200760 -294.826019 -362.060547 -8.673791 21.847260 -73.330002 499.765686
[Rear_Toe3_01]
114 -153.359680 -308.780914 -362.060852 3.931281 18.939110 -119.568703 499.952881
115 -153.359680 -308.780914 -362.060852 3.948188 18.876871 -119.568634 499.952881
116 -153.359680 -308.780914 -362.060852 3.970749 18.763319 -119.559128 499.952881
[planeLockWeightCenter]
114 -0.000062 0.000238 0.000000 -0.011814 -0.004373 -0.000015 0.000246
115 -0.000062 0.000238 0.000000 -0.011814 -0.004373 -0.000015 0.000246
116 -0.000062 0.000238 0.000000 -0.011814 -0.004373 -0.000015 0.000246
[Rear_Toe1_02]
114 379.707825 0.194073 0.000477 -0.000343 -33.056889 0.006991 379.707855
115 379.707825 0.194073 0.000477 -0.000277 -33.072174 0.006766 379.707855
116 379.707825 0.194073 0.000477 -0.000211 -33.087444 0.006540 379.707855
[Rear_Toe1_03]
114 500.129700 0.165701 0.000119 -0.004154 61.691868 -0.000547 500.129761
115 500.129700 0.165701 0.000119 -0.004170 61.909470 -0.000566 500.129761
116 500.129700 0.165701 0.000119 -0.004188 62.127121 -0.000585 500.129761
[Rear_Toe2_02]
114 340.494507 0.000238 -0.000954 0.001179 -79.258583 0.001179 340.494507
115 340.494507 0.000238 -0.000954 0.001179 -79.270958 0.001179 340.494507
116 340.494507 0.000238 -0.000954 0.001179 -79.283363 0.001179 340.494507
[Rear_Toe2_03]
114 433.103577 0.000000 0.000238 0.034977 86.154327 0.034977 433.103546
115 433.103577 0.000000 0.000238 0.035345 86.194244 0.035345 433.103546
116 433.103577 0.000000 0.000238 0.035720 86.234283 0.035720 433.103546
[Rear_Toe3_02]
114 340.494141 -0.000358 -0.000477 -0.002468 -50.537262 -0.002468 340.494171
115 340.494141 -0.000358 -0.000477 -0.002468 -50.581486 -0.002468 340.494171
116 340.494141 -0.000358 -0.000477 -0.002467 -50.625710 -0.002467 340.494171
[Rear_Toe3_03]
114 433.103577 0.001431 -0.000238 0.000394 44.918922 -0.003392 433.103546
115 433.103577 0.001431 -0.000238 0.000392 44.966583 -0.003393 433.103546
116 433.103577 0.001431 -0.000238 0.000390 45.014240 -0.003395 433.103546
[Back_Bone]
114 1312.175781 -701.934692 0.000954 0.465474 0.000343 -85.605896 1488.125488
115 1312.175781 -701.934692 0.000954 0.435727 0.000352 -85.605965 1488.125488
116 1312.175781 -701.934692 0.000954 0.405979 0.000361 -85.606018 1488.125488
[Head]
114 1406.159424 809.709290 0.001431 3.242835 13.312840 41.315701 1622.625488
115 1406.159424 809.709290 0.001431 3.051774 13.203461 41.379173 1622.625488
116 1406.159424 809.709290 0.001431 2.860676 13.094292 41.442997 1622.625488
[Motor_Bone]
114 1158.364380 -417.834747 0.000477 -0.070427 0.810699 -106.334778 1231.419434
115 1158.364380 -417.834747 0.000477 -0.071875 0.767869 -106.315186 1231.419434
116 1158.364380 -417.834747 0.000477 -0.073338 0.725038 -106.295570 1231.419434
[Ping_Mechanism]
114 1220.741455 -432.320953 30.280691 0.000103 -0.000053 82.120995 1295.387329
115 1222.134888 -433.363220 26.722992 0.000103 -0.000053 82.120995 1296.969971
116 1223.528198 -434.405548 23.165241 0.000103 -0.000053 82.120995 1298.563110
[BN_LookIK]
114 193.241119 1380.371704 -0.002861 0.000000 89.965736 -31.038179 1393.832153
115 193.241119 1380.371704 -0.002861 0.000000 89.965736 -31.038179 1393.832153
116 193.241119 1380.371704 -0.002861 0.000000 89.965736 -31.038179 1393.832153
[bottomMouth]
114 -435.092926 615.759399 -0.000954 -0.000022 0.000016 73.527184 753.966492
115 -435.092926 615.759399 -0.000954 -0.000022 0.000016 73.527184 753.966492
116 -435.092926 615.759399 -0.000954 -0.000022 0.000016 73.527184 753.966492
[L_Mouth01]
114 554.440979 7.658243 838.222046 150.204178 23.759130 109.605339 1005.027161
115 554.440979 7.658243 838.222046 150.204178 23.759130 109.605339 1005.027161
116 554.440979 7.658243 838.222046 150.204178 23.759130 109.605339 1005.027161
[L_mouthFront]
114 551.629089 934.514771 339.150421 0.000081 2.804060 79.119301 1136.941284
115 551.629089 934.514771 339.150421 0.000081 2.804060 79.119301 1136.941284
116 551.629089 934.514771 339.150421 0.000081 2.804060 79.119301 1136.941284
[mouthGun]
114 55.332661 1627.420898 0.000000 0.000023 0.000009 -11.038128 1628.361328
115 55.332661 1627.420898 0.000000 0.000023 0.000009 -11.038128 1628.361328
116 55.332661 1627.420898 0.000000 0.000023 0.000009 -11.038128 1628.361328
[R_Mouth01]
114 554.442383 7.659197 -838.223938 29.795891 -23.759109 109.605331 1005.029541
115 554.442383 7.659197 -838.223938 29.795891 -23.759109 109.605331 1005.029541
116 554.442383 7.659197 -838.223938 29.795891 -23.759109 109.605331 1005.029541
[R_mouthFront]
114 551.629089 934.514282 -339.151367 0.000029 -2.803930 79.119133 1136.941162
115 551.629089 934.514282 -339.151367 0.000029 -2.803930 79.119133 1136.941162
116 551.629089 934.514282 -339.151367 0.000029 -2.803930 79.119133 1136.941162
[TopMouth]
114 461.269867 -56.106091 -0.008583 -0.000059 -0.000268 92.025169 464.669525
115 461.269867 -56.106091 -0.008583 -0.000059 -0.000268 92.025169 464.669525
116 461.269867 -56.106091 -0.008583 -0.000059 -0.000268 92.025169 464.669525
[weapon_bone]
114 -987.239868 1448.372803 0.001431 0.000000 89.965736 -31.038221 1752.833740
115 -987.239868 1448.372803 0.001431 0.000000 89.965736 -31.038221 1752.833740
116 -987.239868 1448.372803 0.001431 0.000000 89.965736 -31.038221 1752.833740
